<?xml version="1.0" encoding="UTF-8" standalone="no"?>
<svg
   xmlns:dc="http://purl.org/dc/elements/1.1/"
   xmlns:cc="http://creativecommons.org/ns#"
   xmlns:rdf="http://www.w3.org/1999/02/22-rdf-syntax-ns#"
   xmlns:svg="http://www.w3.org/2000/svg"
   xmlns="http://www.w3.org/2000/svg"
   xmlns:sodipodi="http://sodipodi.sourceforge.net/DTD/sodipodi-0.dtd"
   xmlns:inkscape="http://www.inkscape.org/namespaces/inkscape"
   version="1.0"
   width="2000pt"
   height="1200pt"
   viewBox="0 0 2000 1200"
   preserveAspectRatio="xMidYMid meet"
   id="svg26"
   sodipodi:docname="logicbay.svg"
   inkscape:version="0.92.4 (5da689c313, 2019-01-14)">
  <defs
     id="defs30" />
  <sodipodi:namedview
     pagecolor="#ffffff"
     bordercolor="#666666"
     borderopacity="1"
     objecttolerance="10"
     gridtolerance="10"
     guidetolerance="10"
     inkscape:pageopacity="0"
     inkscape:pageshadow="2"
     inkscape:window-width="1920"
     inkscape:window-height="1001"
     id="namedview28"
     showgrid="false"
     inkscape:zoom="0.14489529"
     inkscape:cx="1031.7796"
     inkscape:cy="559.33334"
     inkscape:window-x="-9"
     inkscape:window-y="-9"
     inkscape:window-maximized="1"
     inkscape:current-layer="svg26" />
  <metadata
     id="metadata2">
Created by potrace 1.16, written by Peter Selinger 2001-2019
<rdf:RDF>
  <cc:Work
     rdf:about="">
    <dc:format>image/svg+xml</dc:format>
    <dc:type
       rdf:resource="http://purl.org/dc/dcmitype/StillImage" />
    <dc:title></dc:title>
  </cc:Work>
</rdf:RDF>
</metadata>
  <g
     id="g831"
     transform="translate(57.233062,41.409213)">
    <path
       d="m 1315.5,362.1 c -20,1.4 -37.9,3 -44.5,4 -3.6,0.5 -9.6,1.4 -13.5,1.9 -87.4,12.7 -176.4,49.3 -248.5,102.4 -69.4,51 -126.6,116.7 -165.6,190.1 -10.4,19.6 -12,23.8 -4.4,11.7 41.4,-65.4 85.6,-114.4 142.1,-157.3 56.8,-43 119.5,-74.4 187.4,-93.7 104.2,-29.7 214.6,-28.8 318.7,2.4 77.5,23.3 146.3,61.6 211.1,117.4 12.9,11.1 47.7,46.9 59.4,61 56.2,67.8 93.3,140 115.2,224 3,11.6 7.5,32.9 9.1,43 6.2,38.4 8,60.8 8,98 -0.1,61.8 -8.4,115.4 -27.2,174 -3.5,10.9 -12.4,35.4 -14,38.7 -0.6,1.3 -0.9,2.5 -0.6,2.8 1.7,1.7 22.2,-46.1 31.1,-72.5 18,-53.4 26.3,-99.1 29.7,-162.7 2.1,-38.6 -2.8,-94.5 -12,-136.3 -1.1,-5.2 -2.3,-10.9 -2.6,-12.5 -3.4,-17.2 -15.9,-56.5 -25.4,-80.5 -28.9,-72.4 -69.9,-134.2 -126.4,-190.5 -53,-52.9 -105.5,-88.6 -176.1,-120 -29.4,-13.1 -74,-27.1 -108,-34 -49.5,-10 -103.1,-14.3 -143,-11.4 z"
       id="path4"
       inkscape:connector-curvature="0"
       style="fill:#0000ff;stroke:none;stroke-width:0.1" />
    <path
       d="m 767.5,752.2 c -14.7,4.8 -24.8,16.3 -27.6,31.3 -1.9,10.1 0.1,20.1 5.7,29 13.5,21.6 42.1,24.6 59.1,6.2 16.9,-18.3 14.1,-45.8 -6.1,-61.2 -7.3,-5.5 -22.6,-8.2 -31.1,-5.3 z"
       id="path6"
       inkscape:connector-curvature="0"
       style="fill:#0000ff;stroke:none;stroke-width:0.1" />
    <path
       d="m 61,778.7 c 0,0.5 -5,24.4 -11,53.3 -6.1,28.9 -11.5,54.5 -12,57 -0.5,2.5 -2.7,13 -4.9,23.5 -2.2,10.4 -10.3,49 -18,85.7 -7.7,36.7 -14.3,67.9 -14.7,69.3 l -0.6,2.5 h 103.1 c 56.7,0 103.1,-0.2 103.1,-0.5 0,-0.2 2.5,-12 5.5,-26 3,-14.1 5.5,-26.1 5.5,-26.6 0,-0.5 -27.9,-0.9 -69.4,-0.9 -40.3,0 -69.7,-0.4 -70,-0.9 -0.3,-0.5 1.6,-11.6 4.3,-24.8 11.8,-56.7 40.3,-192.6 42.1,-200.6 1.1,-4.9 2,-9.5 2,-10.3 0,-1.2 -5,-1.4 -32.5,-1.4 -17.9,0 -32.5,0.3 -32.5,0.7 z"
       id="path8"
       inkscape:connector-curvature="0"
       style="fill:#000000;stroke:none;stroke-width:0.1" />
    <path
       d="m 1068,778.8 c 0,0.5 -7.9,38.4 -17.6,84.3 -19.9,94.6 -32.7,155.7 -38.4,183.4 -2.2,10.4 -4.2,20 -4.5,21.3 l -0.6,2.3 87.8,-0.4 c 85,-0.3 88.1,-0.4 97.3,-2.5 25.5,-5.6 42.5,-14.4 57.5,-29.6 16.6,-16.9 24.5,-36.8 24.5,-62 0,-14.1 -1.1,-19.8 -5.9,-30.1 -6.2,-13.3 -16.5,-22.9 -30.4,-28.5 l -5.9,-2.3 7.2,-1.8 c 21,-5.4 37.4,-22.2 44.1,-45.4 2.9,-10.1 3.5,-25.7 1.5,-37.5 -4,-23.6 -17.5,-38.7 -41,-45.9 -17.2,-5.3 -19.7,-5.4 -100.3,-5.8 -44.3,-0.3 -75.3,-0.1 -75.3,0.5 z m 136.4,52.1 c 7.5,3 12.9,8.3 15.1,15.1 2.5,7.6 1.8,20.6 -1.7,28 -4.8,10.5 -16.6,18.9 -29.3,21 -3.3,0.5 -23.2,1 -44.3,1 -36,0 -38.3,-0.1 -37.8,-1.8 0.6,-2.2 13.6,-64.8 13.6,-65.7 0,-0.4 17.7,-0.5 39.3,-0.3 38.2,0.4 39.3,0.4 45.1,2.7 z M 1185,942.4 c 19.4,5 27.9,19.2 24,40.3 -3.2,17.6 -13.6,28.9 -32,34.9 -4.9,1.6 -10.7,1.8 -51.2,2.2 -25.2,0.2 -45.8,0.2 -45.8,-0.1 0,-0.4 15.5,-73.1 16.5,-77.5 l 0.6,-2.4 40.7,0.5 c 33.8,0.4 41.8,0.7 47.2,2.1 z"
       id="path10"
       inkscape:connector-curvature="0"
       style="fill:#000000;stroke:none;stroke-width:0.1" />
    <path
       d="m 329,854.6 c -49.6,9 -84.6,44.8 -96.1,98.6 -3,13.6 -3.7,38.5 -1.5,51.1 5.7,33.5 24.5,55.6 55.9,65.8 16.9,5.5 45.8,7.1 63.9,3.5 55.1,-10.6 90.9,-52.4 97.7,-113.8 3.5,-31.5 -2.7,-58 -17.7,-76 -12.7,-15.3 -32,-25.3 -56.5,-29.3 -11.3,-1.8 -35.4,-1.8 -45.7,0.1 z m 38.1,45.3 c 6.9,2.6 11.1,5.7 15.3,11.2 5.6,7.4 7.8,14.7 8.4,28.5 0.8,20.4 -2.9,37.8 -11.8,55.9 -7.8,15.7 -17.9,26.3 -30.7,32.2 -5.2,2.4 -7,2.7 -17.8,2.8 -10.9,0 -12.5,-0.2 -17.6,-2.6 -10.5,-4.9 -17.7,-13.4 -22,-25.9 -1.9,-5.4 -2.3,-8.5 -2.2,-19 0.1,-40.6 20.8,-76.7 48.4,-84.5 7.6,-2.1 22.6,-1.4 30,1.4 z"
       id="path12"
       inkscape:connector-curvature="0"
       style="fill:#000000;stroke:none;stroke-width:0.1" />
    <path
       d="m 552.1,854.5 c -20.4,4.6 -35.4,12.9 -49.8,27.6 -8.8,9 -12.6,14 -18.6,24.4 -17.8,31 -24,73.5 -15.1,104.1 6.7,23.2 22.2,41.2 42.4,49.5 23.9,9.7 51.5,8.6 70.9,-2.8 3.5,-2.1 9.9,-7.3 14.3,-11.5 4.3,-4.3 7.8,-7.4 7.8,-7 0,2.1 -10.3,32.6 -13.1,38.7 -6.5,14.3 -15.5,24.6 -25.7,29.1 -21.4,9.6 -50.5,1 -55.6,-16.5 -0.9,-3 -1.6,-6.5 -1.6,-7.8 v -2.3 h -29 -29 v 5.3 c 0,6.9 3.2,19.5 6.6,25.7 11.3,20.8 35.3,34.3 67.7,38.1 12.2,1.4 36.3,0.6 49.1,-1.6 41.4,-7.4 65.2,-28.8 78.6,-71.1 3.2,-10.2 47.1,-216.3 46.3,-217.7 -0.2,-0.4 -12.7,-0.7 -27.8,-0.7 -25.2,0 -27.4,0.1 -27.9,1.7 -0.3,1 -1.7,8 -3.2,15.5 -1.5,7.6 -3.1,13.8 -3.5,13.8 -0.4,0 -2.3,-2.9 -4.3,-6.3 -4.3,-7.8 -15.1,-18.2 -22.9,-22 -10.9,-5.4 -17.9,-6.9 -34.7,-7.3 -11.1,-0.3 -17.3,0.1 -21.9,1.1 z m 41.5,43.9 c 7.1,1.9 14.9,6.3 18.6,10.5 4.1,4.7 8.5,14.3 9.9,21.6 1.7,8.9 0.5,27.1 -2.5,38.2 -4.6,17 -11.6,29.2 -22.3,39.4 -10,9.5 -21.6,14.1 -35.6,14.1 -15.3,0 -26.4,-6.8 -33.1,-20.2 -14.6,-29.3 1.2,-81.7 29.7,-98.4 10.5,-6.2 24.1,-8.2 35.3,-5.2 z"
       id="path14"
       inkscape:connector-curvature="0"
       style="fill:#000000;stroke:none;stroke-width:0.1" />
    <path
       d="m 893.7,854.5 c -40.1,6.8 -70.7,32.2 -87.1,72.4 -11.1,27.3 -13.6,65.6 -6,91.8 6.4,22.2 18.7,37 38.9,46.8 29.2,14.1 74.1,13.5 103.3,-1.4 19.7,-10.1 36.5,-27.5 47.1,-48.7 4.6,-9.3 9.1,-20.2 9.1,-22.1 0,-1 -5.5,-1.3 -28.8,-1.3 h -28.8 l -2.8,6.6 c -9.6,23.4 -27.2,34.6 -50.7,32.3 -16.1,-1.7 -27,-11.6 -31.4,-28.6 -2,-7.6 -1.9,-27.3 0.1,-39.4 6,-35.8 23.6,-60.1 47.2,-65 11.5,-2.4 28,0.2 36,5.6 6.9,4.7 12.2,15.7 12.2,25.2 v 3.3 h 29.1 29.2 l -0.6,-8.3 c -1.8,-26.8 -16.8,-48.8 -41.1,-60.3 -15,-7.1 -32.1,-10.4 -53.1,-10.3 -7.7,0.1 -17.5,0.7 -21.8,1.4 z"
       id="path16"
       inkscape:connector-curvature="0"
       style="fill:#000000;stroke:none;stroke-width:0.1" />
    <path
       d="m 1391,854.7 c -31.2,4.7 -55,20.1 -65.8,42.5 -3.2,6.8 -7.2,19.6 -7.2,23.5 v 2.3 h 27.5 27.5 v -2.3 c 0,-3.7 4.7,-12.2 9.3,-16.8 11.1,-11.2 33.6,-15 51.4,-8.7 12.1,4.2 17.2,11 17.3,22.7 0,11.4 -4.8,17.6 -16.5,21.4 -7.2,2.3 -14.1,3.3 -41.5,6.2 -28.9,3 -38,4.6 -51.4,9.1 -14,4.7 -23.7,10.5 -32.6,19.4 -11,11 -16,21.2 -18.2,37.2 -4,30 13.3,53.9 45.2,62 12.7,3.2 33.8,3 47.2,-0.5 11.7,-3.1 25.2,-9.9 33.3,-16.7 l 6,-5.1 0.5,9.3 0.5,9.3 28.5,0.3 28.5,0.2 v -16.7 l 0.1,-16.8 10.3,-45.5 c 11,-49.1 13.6,-62.6 14.7,-76.6 1.3,-18 -3,-30.9 -14,-41.2 -10.9,-10.2 -26.9,-16.4 -49.1,-19.1 -12.4,-1.5 -40,-1.2 -51.5,0.6 z m 48,116.4 c 0,3.7 -7.9,27.9 -11.6,35.6 -7.5,15.7 -19,25.2 -34.3,28.4 -8.5,1.7 -23.5,0.7 -29.8,-2 -6.1,-2.7 -11.5,-8.2 -13.3,-13.6 -3.1,-9.4 1.1,-24.3 8.4,-29.9 8.9,-6.7 17.1,-8.9 41.1,-11.1 17.1,-1.6 30.1,-4.2 35.2,-6.9 3.4,-1.8 4.3,-1.9 4.3,-0.5 z"
       id="path18"
       inkscape:connector-curvature="0"
       style="fill:#000000;stroke:none;stroke-width:0.1" />
    <path
       d="m 736.5,859.2 c -0.4,1.1 -9.3,42.8 -21.1,98.8 -1.9,9.1 -4.8,22.6 -6.4,30 -1.6,7.4 -5.2,24.3 -8,37.5 -2.8,13.2 -5.9,28 -7,32.8 -1.1,4.9 -2,9.5 -2,10.3 0,1.2 4.6,1.4 29.4,1.4 h 29.3 l 0.6,-3.3 c 0.3,-1.7 4.9,-23.5 10.2,-48.2 22.2,-104.3 33.5,-157.8 33.5,-159.1 0,-2 -57.8,-2.1 -58.5,-0.2 z"
       id="path20"
       inkscape:connector-curvature="0"
       style="fill:#000000;stroke:none;stroke-width:0.1" />
    <path
       d="m 1526,859.5 c 0,0.8 2.5,15.3 5.5,32.3 3.1,16.9 8.7,48 12.5,69.2 3.8,21.2 9.7,53.7 13,72.3 l 6.1,33.8 -4.3,7.5 c -6.1,10.8 -9,13.9 -16.5,17.6 -5.8,2.8 -7.5,3.2 -15.2,3.2 -4.7,0.1 -12.5,-0.3 -17.3,-0.8 l -8.6,-0.9 -1.1,5.4 c -0.6,3 -2.8,13.8 -4.9,24.1 l -3.9,18.6 3.1,0.6 c 7.4,1.3 42.5,1.8 51.4,0.7 17.8,-2.2 31,-8.1 41.1,-18.2 8.4,-8.4 12.2,-14.5 33.8,-53.4 5.5,-9.9 16.6,-29.7 24.5,-44 8,-14.3 27.6,-49.4 43.5,-78 16,-28.6 33.6,-60.2 39.2,-70.2 5.5,-10 10.4,-18.8 10.7,-19.7 0.6,-1.5 -2.3,-1.6 -30.2,-1.4 l -30.9,0.3 -36.4,75.2 c -20,41.4 -36.6,75.1 -36.8,75 -0.1,-0.2 -4.3,-33.6 -9.3,-74.3 -4.9,-40.6 -9.2,-74.5 -9.5,-75.2 -0.3,-0.9 -7.3,-1.2 -30,-1.2 -25.6,0 -29.5,0.2 -29.5,1.5 z"
       id="path22"
       inkscape:connector-curvature="0"
       style="fill:#000000;stroke:none;stroke-width:0.1" />
  </g>
</svg>
